<svg xmlns="http://www.w3.org/2000/svg" viewBox="0 0 48 48" role="img" aria-label="AI for Smart Mobility Lab">
  <title>AI for Smart Mobility Lab</title>
  <rect width="48" height="48" rx="11" fill="#027E40"/>
  <path d="M24 4c6.63 0 12 5.37 12 12 0 4.2-2.6 9.3-5.4 13.4C27.9 33.3 24 41 24 41s-3.9-7.7-6.6-11.6C14.6 25.3 12 20.2 12 16c0-6.63 5.37-12 12-12Z" fill="none" stroke="#fff" stroke-width="3"/>
  <g fill="#fff">
    <circle cx="20" cy="11.8" r="3.2"/><circle cx="24" cy="10.8" r="3.3"/><circle cx="28" cy="11.8" r="3.2"/>
    <circle cx="17.8" cy="15" r="3.2"/><circle cx="30.2" cy="15" r="3.2"/><circle cx="24" cy="14.8" r="3.6"/>
    <circle cx="19.8" cy="18.2" r="3.2"/><circle cx="28.2" cy="18.2" r="3.2"/><circle cx="24" cy="18.8" r="3.3"/>
  </g>
  <path d="M24 8.2V21.8" stroke="#027E40" stroke-width="1.6"/>
  <path d="M24 12.6h3.6M24 18.4h3M24 15.4h4.4" fill="none" stroke="#027E40" stroke-width="1.5" stroke-linecap="round"/>
  <g fill="#027E40">
    <circle cx="27.6" cy="12.6" r="1.4"/><circle cx="28.4" cy="15.4" r="1.4"/><circle cx="27" cy="18.4" r="1.4"/>
  </g>
</svg>
